<svg data-v-decfdd8a="" version="1.0" xmlns="http://www.w3.org/2000/svg" xmlns:xlink="http://www.w3.org/1999/xlink"
  width="100%" height="100%" viewBox="0 0 340.000000 270.000000" preserveAspectRatio="xMidYMid meet"
  color-interpolation-filters="sRGB" style="margin: auto;">
  <rect data-v-decfdd8a="" x="0" y="0" width="100%" height="100%" fill="url(#watermark)" fill-opacity="1"
    class="watermarklayer"></rect>
  <g data-v-decfdd8a="" fill="#333" class="icon-text-wrapper icon-svg-group iconsvg">
    <g class="iconsvg-imagesvg">
      <g>
        <rect fill="#333" fill-opacity="0" stroke-width="2" x="0" y="0" class="image-rect"></rect> <svg x="0" y="0"
          filtersec="colorsb7775694203" class="image-svg-svg primary" style="overflow: visible;"><svg
            xmlns="http://www.w3.org/2000/svg"
            viewBox="-0.06913557648658752 -0.029104460030794144 73.13433837890625 72.89527893066406">
            <title>资源 183</title>
            <path
              d="M36.5 9.26c1.36-2.65 2.41-5.43 3.5-8.17a1.4 1.4 0 0 1 1.77-1 35.52 35.52 0 0 1 17.85 7.78 36 36 0 0 1 12.95 22.88 35.38 35.38 0 0 1-7.5 28.3c-1 1.26-1 1.23-2.32.37C60.61 58 58.46 56.6 56.06 55a23 23 0 0 0 1.45 3.74c.62 1.59 1.3 3.15 2 4.69a1 1 0 0 1-.34 1.47A36.34 36.34 0 0 1 43 72.26a36 36 0 0 1-24-3.89A41.72 41.72 0 0 1 13.89 65a1.15 1.15 0 0 1-.38-1.65c1.18-2.75 2.49-5.46 3.49-8.3.18-.25.48-.43.46-.79l7.3-17.1Q30.36 24 36 10.85c.11-.27.11-.73.56-.69s.35.42.46.67l3 6.9 15.13 35.62c.23.53.34 1.27 1.11.42a24 24 0 0 0 6.59-14.4c.83-10-2.75-18.23-10.71-24.39A24.31 24.31 0 0 0 36.5 9.9zm0 53.45a20.65 20.65 0 0 0 2.94-.2 26 26 0 0 0 15.01-6.91c1-1 1-1-.09-1.76-5.68-3.77-11.38-7.52-17-11.31a1.29 1.29 0 0 0-1.66 0q-8.56 5.7-17.15 11.35c-.79.51-.88.82-.17 1.49a26.46 26.46 0 0 0 18.07 7.34z"
              fill="#23c0a9"></path>
            <path
              d="M17.45 54.26c0 .36-.28.54-.46.79-2.4 1.36-4.65 3-6.93 4.52-.85.58-1.32.49-2-.3a35.39 35.39 0 0 1-7.4-15.7A36.46 36.46 0 0 1 6.25 15.8 34.67 34.67 0 0 1 28 .7c1.13-.28 2.3-.49 3.49-.7.72-.12 1 .13 1.3.77C33.87 3.41 35 6 36.13 8.6a5.19 5.19 0 0 0 .37.65v.65a19.22 19.22 0 0 0-6.58.7C18.36 13.54 11 23.5 10.15 34.83a24.61 24.61 0 0 0 4.07 15.73 11.35 11.35 0 0 0 3.23 3.7z"
              fill="#fb7256"></path>
          </svg></svg>
        <!---->
      </g>
    </g>
  </g>
  <defs v-gra="od"></defs>
</svg>