<svg data-v-decfdd8a="" version="1.0" xmlns="http://www.w3.org/2000/svg" xmlns:xlink="http://www.w3.org/1999/xlink"
  width="100%" height="100%" viewBox="0 0 250 60" preserveAspectRatio="xMidYMid meet"
  color-interpolation-filters="sRGB" style="margin: auto;">
  <rect data-v-decfdd8a="" x="0" y="0" width="100%" height="100%" fill="#fff" fill-opacity="0" class="background">
  </rect>
  <g data-v-decfdd8a="" fill="#333" class="icon-text-wrapper icon-svg-group iconsvg">
    <g class="iconsvg-imagesvg">
      <g>
        <rect fill="#333" fill-opacity="0" stroke-width="2" x="0" y="0" width="60" height="60"
          class="image-rect"></rect> <svg x="0" y="0" width="60" height="59.80384339366877"
          filtersec="colorsb7775694203" class="image-svg-svg primary" style="overflow: visible;"><svg
            xmlns="http://www.w3.org/2000/svg"
            viewBox="-0.06913557648658752 -0.029104460030794144 73.13433837890625 72.89527893066406">
            <path
              d="M36.5 9.26c1.36-2.65 2.41-5.43 3.5-8.17a1.4 1.4 0 0 1 1.77-1 35.52 35.52 0 0 1 17.85 7.78 36 36 0 0 1 12.95 22.88 35.38 35.38 0 0 1-7.5 28.3c-1 1.26-1 1.23-2.32.37C60.61 58 58.46 56.6 56.06 55a23 23 0 0 0 1.45 3.74c.62 1.59 1.3 3.15 2 4.69a1 1 0 0 1-.34 1.47A36.34 36.34 0 0 1 43 72.26a36 36 0 0 1-24-3.89A41.72 41.72 0 0 1 13.89 65a1.15 1.15 0 0 1-.38-1.65c1.18-2.75 2.49-5.46 3.49-8.3.18-.25.48-.43.46-.79l7.3-17.1Q30.36 24 36 10.85c.11-.27.11-.73.56-.69s.35.42.46.67l3 6.9 15.13 35.62c.23.53.34 1.27 1.11.42a24 24 0 0 0 6.59-14.4c.83-10-2.75-18.23-10.71-24.39A24.31 24.31 0 0 0 36.5 9.9zm0 53.45a20.65 20.65 0 0 0 2.94-.2 26 26 0 0 0 15.01-6.91c1-1 1-1-.09-1.76-5.68-3.77-11.38-7.52-17-11.31a1.29 1.29 0 0 0-1.66 0q-8.56 5.7-17.15 11.35c-.79.51-.88.82-.17 1.49a26.46 26.46 0 0 0 18.07 7.34z"
              fill="#23c0a9"></path>
            <path
              d="M17.45 54.26c0 .36-.28.54-.46.79-2.4 1.36-4.65 3-6.93 4.52-.85.58-1.32.49-2-.3a35.39 35.39 0 0 1-7.4-15.7A36.46 36.46 0 0 1 6.25 15.8 34.67 34.67 0 0 1 28 .7c1.13-.28 2.3-.49 3.49-.7.72-.12 1 .13 1.3.77C33.87 3.41 35 6 36.13 8.6a5.19 5.19 0 0 0 .37.65v.65a19.22 19.22 0 0 0-6.58.7C18.36 13.54 11 23.5 10.15 34.83a24.61 24.61 0 0 0 4.07 15.73 11.35 11.35 0 0 0 3.23 3.7z"
              fill="#fb7256"></path>
          </svg></svg>
        <!---->
      </g>
    </g>
    <g transform="translate(67,16.821922302246094)">
      <g data-gra="path-name" fill-rule="" class="tp-name iconsvg-namesvg">
        <g transform="scale(1)">
          <g>
            <path
              d="M4.92 0L4.92-0.42 6.61-0.84 6.61-18.98 3.38-18.98Q3.38-17.27 2.45-15.69L2.45-15.69Q2.05-15.05 1.55-14.63L1.55-14.63 0.7-14.63 0.7-19.69 17.16-19.69 17.16-14.63 16.31-14.63Q15.78-15.05 15.38-15.69L15.38-15.69Q14.48-17.21 14.48-18.98L14.48-18.98 11.25-18.98 11.25-0.84 12.94-0.42 12.94 0 4.92 0ZM25.17 0.42Q21.57 0.42 19.57-1.56 17.58-3.54 17.58-7.03L17.58-7.03Q17.58-9.31 18.45-11 19.32-12.68 20.88-13.58 22.44-14.48 24.47-14.48L24.47-14.48Q26.49-14.48 28.03-13.72 29.56-12.97 30.39-11.69 31.22-10.41 31.22-8.86L31.22-8.86Q31.22-8.16 31.08-7.65L31.08-7.65 30.94-7.17Q29.73-6.92 28.32-6.75L28.32-6.75Q25.37-6.33 22.36-6.33L22.36-6.33Q22.36-3.07 23.26-1.67 24.16-0.28 25.73-0.28L25.73-0.28Q26.83-0.28 27.77-0.8 28.72-1.32 29.26-2.18 29.81-3.04 29.81-3.94L29.81-3.94 30.52-3.94Q30.52-2.81 29.84-1.8 29.17-0.79 27.96-0.18 26.75 0.42 25.17 0.42L25.17 0.42ZM22.36-7.03Q24.16-7.03 25.28-7.17L25.28-7.17Q25.76-7.2 26.3-7.31L26.3-7.31Q26.33-7.45 26.44-7.93L26.44-7.93Q26.58-8.63 26.58-9.42L26.58-9.42Q26.58-11.76 25.96-12.84 25.34-13.92 24.47-13.92L24.47-13.92Q22.36-13.92 22.36-7.03L22.36-7.03ZM40.92 0.42Q37.32 0.42 35.33-1.56 33.33-3.54 33.33-7.03L33.33-7.03Q33.33-10.52 35.33-12.5 37.32-14.48 40.92-14.48L40.92-14.48Q43.51-14.48 44.82-13.58 46.13-12.68 46.13-11.39L46.13-11.39Q46.13-10.43 45.55-9.86 44.97-9.28 44.02-9.28L44.02-9.28Q43.62-9.28 43.23-9.34L43.23-9.34 42.89-9.42 42.89-13.64 42.5-13.78Q42.08-13.92 41.48-13.92L41.48-13.92Q39.88-13.92 39-12.4 38.11-10.88 38.11-7.03L38.11-7.03Q38.11-3.29 39-1.79 39.88-0.28 41.48-0.28L41.48-0.28Q42.58-0.28 43.52-0.8 44.47-1.32 45.01-2.18 45.56-3.04 45.56-3.94L45.56-3.94 46.27-3.94Q46.27-2.81 45.59-1.8 44.92-0.79 43.71-0.18 42.5 0.42 40.92 0.42L40.92 0.42ZM48.23 0L48.23-0.42 49.92-0.84 49.92-18.84 48.23-19.27 48.23-19.69 51.89-19.69Q54.42-19.69 54.42-17.16L54.42-17.16 54.42-12.66Q54.84-13.22 55.29-13.56L55.29-13.56Q56.5-14.48 58.08-14.48L58.08-14.48Q59.65-14.48 60.9-13.82 62.16-13.16 62.86-12.09 63.56-11.03 63.56-9.84L63.56-9.84 63.56-0.84 65.25-0.42 65.25 0 61.59 0Q59.06 0 59.06-2.53L59.06-2.53 59.06-9.84Q59.06-11.62 58.43-12.56 57.8-13.5 56.95-13.5L56.95-13.5Q55.88-13.5 55.04-12.38L55.04-12.38Q54.67-11.9 54.42-11.25L54.42-11.25 54.42-0.84 56.11-0.42 56.11 0 48.23 0ZM73.55 0.42Q71.8 0.42 70.42-0.34L70.42-0.34Q69.75-0.7 69.33-1.13L69.33-1.13Q68.88-0.51 68.34-0.17L68.34-0.17Q68.09 0 67.78 0.14L67.78 0.14 67.08 0.14 67.08-4.64 68.2-4.64Q68.57-3.46 69.27-2.45L69.27-2.45Q70.76-0.28 72.98-0.28L72.98-0.28Q74.17-0.28 74.77-0.86 75.38-1.43 75.38-2.53L75.38-2.53Q75.38-3.46 74.55-4.09 73.72-4.73 71.94-5.65L71.94-5.65Q70.42-6.41 69.48-7.02 68.54-7.62 67.88-8.54 67.22-9.45 67.22-10.69L67.22-10.69Q67.22-12.38 68.67-13.43 70.12-14.48 73.13-14.48L73.13-14.48Q74.62-14.48 75.88-13.7L75.88-13.7Q76.5-13.33 76.95-12.94L76.95-12.94Q77.32-13.44 77.93-13.89L77.93-13.89Q78.41-14.18 78.5-14.2L78.5-14.2 79.2-14.2 79.2-9.42 78.08-9.42Q77.65-10.63 77.03-11.59L77.03-11.59Q75.63-13.78 73.69-13.78L73.69-13.78Q72.93-13.78 72.39-13.22 71.86-12.66 71.86-11.81L71.86-11.81Q71.86-10.74 72.76-10.03 73.66-9.31 75.49-8.38L75.49-8.38Q76.98-7.62 77.86-7.05 78.75-6.47 79.38-5.63 80.02-4.78 80.02-3.66L80.02-3.66Q80.02 0.42 73.55 0.42L73.55 0.42ZM89.44 0.42Q87.58 0.42 86.22-0.25 84.85-0.93 84.12-2.11 83.39-3.29 83.39-4.78L83.39-4.78 83.39-13.36 81.42-13.36 81.42-14.06 83.39-14.06 83.39-15.47Q83.39-18 85.92-18L85.92-18 87.89-18 87.89-14.06 91.83-14.06 91.83-13.36 87.89-13.36 87.89-4.78Q87.89-2.19 88.42-1.24 88.96-0.28 90-0.28L90-0.28Q91.01-0.28 91.77-1.27 92.53-2.25 92.53-3.94L92.53-3.94 93.23-3.94Q93.23-1.86 92.19-0.72 91.15 0.42 89.44 0.42L89.44 0.42ZM99.98 0.42Q97.48 0.42 96.13-0.65 94.78-1.72 94.78-3.38L94.78-3.38Q94.78-4.47 95.26-5.54L95.26-5.54Q95.46-6.05 95.77-6.47L95.77-6.47Q96.92-6.75 98.27-6.98L98.27-6.98Q101.31-7.48 103.64-7.59L103.64-7.59 103.64-8.44Q103.64-11.56 102.88-12.74 102.12-13.92 100.55-13.92L100.55-13.92Q99.96-13.92 99.53-13.78L99.53-13.78 99.14-13.64 99.14-9.42 98.78-9.34Q98.33-9.28 98.02-9.28L98.02-9.28Q97.06-9.28 96.48-9.86 95.91-10.43 95.91-11.39L95.91-11.39Q95.91-12.68 97.21-13.58 98.52-14.48 101.11-14.48L101.11-14.48Q103.3-14.48 104.89-13.71 106.48-12.94 107.31-11.57 108.14-10.21 108.14-8.44L108.14-8.44 108.14-0.84 109.83-0.42 109.83 0 107.3 0Q105.61 0 104.68-1.04L104.68-1.04Q104.29-1.46 104.06-2.11L104.06-2.11Q103.67-1.41 103.13-0.84L103.13-0.84Q101.87 0.42 99.98 0.42L99.98 0.42ZM101.11-0.56Q102.15-0.56 102.99-1.69L102.99-1.69Q103.3-2.11 103.64-2.81L103.64-2.81 103.64-6.89Q102.35-6.89 101.17-6.75L101.17-6.75Q100.29-6.64 99.98-6.61L99.98-6.61Q99.84-6.3 99.7-5.77L99.7-5.77Q99.42-4.7 99.42-3.66L99.42-3.66Q99.42-2.08 99.9-1.32 100.38-0.56 101.11-0.56L101.11-0.56ZM119.11 0.42Q115.51 0.42 113.51-1.56 111.52-3.54 111.52-7.03L111.52-7.03Q111.52-10.52 113.51-12.5 115.51-14.48 119.11-14.48L119.11-14.48Q121.7-14.48 123-13.58 124.31-12.68 124.31-11.39L124.31-11.39Q124.31-10.43 123.74-9.86 123.16-9.28 122.2-9.28L122.2-9.28Q121.81-9.28 121.42-9.34L121.42-9.34 121.08-9.42 121.08-13.64 120.68-13.78Q120.26-13.92 119.67-13.92L119.67-13.92Q118.07-13.92 117.18-12.4 116.3-10.88 116.3-7.03L116.3-7.03Q116.3-3.29 117.18-1.79 118.07-0.28 119.67-0.28L119.67-0.28Q120.77-0.28 121.71-0.8 122.65-1.32 123.2-2.18 123.75-3.04 123.75-3.94L123.75-3.94 124.45-3.94Q124.45-2.81 123.78-1.8 123.1-0.79 121.89-0.18 120.68 0.42 119.11 0.42L119.11 0.42ZM126.42 0L126.42-0.42 128.11-0.84 128.11-18.84 126.42-19.27 126.42-19.69 130.08-19.69Q132.61-19.69 132.61-17.16L132.61-17.16 132.61-7.31 137.81-12.8 135.7-13.64 135.7-14.06 141.05-14.06 141.05-13.64 138.8-12.8 135.56-9.42 141.05-0.84 142.45-0.42 142.45 0 138.8 0Q137.45 0 136.6-0.59 135.76-1.18 135-2.39L135-2.39 132.61-6.19 132.61-0.84 134.3-0.42 134.3 0 126.42 0ZM143.3 0L143.3-0.42 144.98-0.84 144.98-13.22 143.3-13.64 143.3-14.06 146.95-14.06Q149.48-14.06 149.48-11.53L149.48-11.53 149.48-0.84 151.17-0.42 151.17 0 143.3 0ZM146.95-15.75Q146.11-15.75 145.55-16.31 144.98-16.88 144.98-17.72L144.98-17.72Q144.98-18.56 145.55-19.13 146.11-19.69 146.95-19.69L146.95-19.69Q147.8-19.69 148.36-19.13 148.92-18.56 148.92-17.72L148.92-17.72Q148.92-16.88 148.36-16.31 147.8-15.75 146.95-15.75L146.95-15.75ZM152.72 0L152.72-0.42 154.41-0.84 154.41-12.8 152.44-12.8 152.44-13.5 154.41-13.5 154.41-14.91Q154.41-16.4 155.12-17.58 155.84-18.76 157.18-19.43 158.51-20.11 160.31-20.11L160.31-20.11Q161.78-20.11 162.83-19.67 163.88-19.24 164.42-18.52 164.95-17.8 164.95-17.02L164.95-17.02Q164.95-16.06 164.38-15.48 163.8-14.91 162.84-14.91L162.84-14.91Q162.45-14.91 162.06-14.96L162.06-14.96 161.72-15.05 161.72-19.41 161.47-19.46Q161.35-19.49 161.21-19.52 161.07-19.55 160.88-19.55L160.88-19.55Q159.92-19.55 159.41-18.55 158.91-17.55 158.91-14.91L158.91-14.91 158.91-13.5 163.41-13.5 163.41-12.8 158.91-12.8 158.91-0.84 160.59-0.42 160.59 0 152.72 0ZM168.47 6.05Q167.2 6.05 166.5 5.37 165.8 4.7 165.8 3.52L165.8 3.52Q165.8 2.45 166.37 1.86 166.95 1.27 167.91 1.27L167.91 1.27Q168.13 1.27 168.36 1.31 168.58 1.35 168.67 1.35L168.67 1.35 169.03 1.41 169.03 5.2Q169.85 5.06 170.47 4.3 171.08 3.54 171.84 1.69L171.84 1.69 172.41 0.28 165.09-13.22 163.69-13.64 163.69-14.06 167.2-14.06Q168.67-14.06 169.52-13.46 170.38-12.85 171-11.67L171-11.67 174.52-5.17 177.47-12.8 175.36-13.64 175.36-14.06 180.56-14.06 180.56-13.64 178.31-12.8 172.69 1.69Q171.79 3.99 170.78 5.02 169.76 6.05 168.47 6.05L168.47 6.05Z"
              transform="translate(-0.699999988079071, 20.110000610351562)"></path>
          </g>
          <!---->
          <!---->
          <!---->
          <!---->
          <!---->
          <!---->
          <!---->
        </g>
      </g>
      <!---->
    </g>
  </g>
  <defs v-gra="od"></defs>
</svg>